<svg xmlns="http://www.w3.org/2000/svg" xmlns:svgjs="http://svgjs.com/svgjs" xmlns:xlink="http://www.w3.org/1999/xlink" width="360" height="360"><svg xmlns="http://www.w3.org/2000/svg" width="360" height="360" fill-rule="evenodd" stroke-linejoin="round" stroke-miterlimit="2" clip-rule="evenodd" viewBox="0 0 3000 3000"><path fill="none" d="M0 0h3000v3000H0z"/><path fill="#30a7e3" d="M1763.62 2186.88h-525.113c-9.381 0-17.118 9.335-17.193 20.745l-2.831 431.428c-.061 9.362 6.186 17.017 13.882 17.017h531.24c7.695 0 14.043-7.657 14.104-17.017l2.831-431.428c.075-11.41-7.538-20.745-16.92-20.745Z" class="color9dc9fc svgShape"/><path fill="#319fd6" d="M1847.27 2591.6h-695.407c-12.423 0-22.596 1.283-22.607 2.851l-.389 59.285c-.008 1.286 8.325 2.338 18.516 2.338h703.521c10.191 0 18.538-1.052 18.546-2.338l.389-59.285c.01-1.568-10.143-2.851-22.569-2.851Zm-68.85-170.12 1.403-213.85c.075-11.41-7.538-20.745-16.92-20.745H1237.79c-9.381 0-17.118 9.335-17.193 20.745l-1.403 213.85h559.226Z" class="color3175d6 svgShape"/><path fill="#7ad2fe" d="M2568.12 706.853H441.11c-37.997 0-69.29 30.759-69.536 68.351l-9.326 1421.42c-.203 30.846 25.14 56.066 56.311 56.066h2151.82c31.172 0 56.845-25.228 57.047-56.066l9.327-1421.42c.246-37.592-30.635-68.351-68.64-68.351Z" class="color7ab4fe svgShape"/><circle cx="1499.51" cy="2154.7" r="61.925" fill="#ddd" class="colorbde0fe svgShape"/><path fill="#ddd" d="M1862.61 706.853H441.1c-37.997 0-69.282 30.751-69.528 68.343l-9.326 1421.43c-.203 30.846 25.14 56.074 56.311 56.074h634.411l809.643-1545.85Z" class="colorbde0fe svgShape"/><path fill="#319fd6" d="M2569.92 704.678H439.34c-37.067 0-67.593 30.006-67.833 66.677l-8.389 1278.62h2265.37l8.389-1278.62c.241-36.671-29.891-66.677-66.958-66.677Z" class="color3175d6 svgShape"/><path fill="#7ad2fe" d="M1863.75 704.678H439.34c-37.067 0-67.585 30.006-67.825 66.677l-8.389 1278.62h796.042l704.586-1345.3Z" class="color7ab4fe svgShape"/><path fill="#ddd" d="M2563.92 776.743H444.4c-1.308 0-2.381 1.056-2.39 2.349l-7.694 1172.75c-.009 1.294 1.051 2.349 2.358 2.349h2119.52a2.38 2.38 0 0 0 2.382-2.349l7.694-1172.75a2.34 2.34 0 0 0-2.351-2.349Z" class="colorbde0fe svgShape"/><path fill="#f5f5f5" d="M2484.91 541.146c0-28.187-22.884-51.072-51.071-51.072h-1175.77c-28.187 0-51.072 22.885-51.072 51.072V949.72c0 28.187 22.885 51.071 51.072 51.071h1175.77c28.187 0 51.071-22.884 51.071-51.071V541.146Z" class="coloreef1ff svgShape"/><path fill="#4792b8" d="M1311.67 929.04c0-.693-.562-1.256-1.256-1.256h-23.623c-.693 0-1.256.563-1.256 1.256v2.512c0 .694.563 1.256 1.256 1.256h23.623c.694 0 1.256-.562 1.256-1.256v-2.512Zm1093.46-372.319H1327.78c-.833 0-1.51.677-1.51 1.51v372.828c0 .834.677 1.511 1.51 1.511h.21c.207.15.461.238.736.238h1076.4c.693 0 1.256-.562 1.256-1.256V557.977c0-.693-.563-1.256-1.256-1.256ZM1332.31 840.043v87.741h113.299v-87.741H1332.31Zm119.341 0v87.741h113.3v-87.741h-113.3Zm119.342 0v87.741h113.3v-87.741h-113.3Zm119.341 0v87.741h113.3v-87.741h-113.3Zm119.342 0v87.741h113.3v-87.741h-113.3Zm119.341 0v87.741h113.3v-87.741h-113.3Zm119.342 0v87.741h113.3v-87.741h-113.3Zm119.342 0v87.741h113.3v-87.741h-113.3Zm119.341 0v87.741h113.3v-87.741h-113.3Zm-975.373-3.769c0-.693-.562-1.256-1.256-1.256h-23.623c-.693 0-1.256.563-1.256 1.256v2.513c0 .693.563 1.256 1.256 1.256h23.623c.694 0 1.256-.563 1.256-1.256v-2.513Zm20.641-88.997v87.741h113.299v-87.741H1332.31Zm119.341 0v87.741h113.3v-87.741h-113.3Zm119.342 0v87.741h113.3v-87.741h-113.3Zm119.341 0v87.741h113.3v-87.741h-113.3Zm119.342 0v87.741h113.3v-87.741h-113.3Zm119.341 0v87.741h113.3v-87.741h-113.3Zm119.342 0v87.741h113.3v-87.741h-113.3Zm119.342 0v87.741h113.3v-87.741h-113.3Zm119.341 0v87.741h113.3v-87.741h-113.3Zm-975.373-3.769c0-.693-.562-1.256-1.256-1.256h-23.623c-.693 0-1.256.563-1.256 1.256v2.513c0 .693.563 1.256 1.256 1.256h23.623c.694 0 1.256-.563 1.256-1.256v-2.513Zm20.641-88.997v87.741h113.299v-87.741H1332.31Zm119.341 0v87.741h113.3v-87.741h-113.3Zm119.342 0v87.741h113.3v-87.741h-113.3Zm119.341 0v87.741h113.3v-87.741h-113.3Zm119.342 0v87.741h113.3v-87.741h-113.3Zm119.341 0v87.741h113.3v-87.741h-113.3Zm119.342 0v87.741h113.3v-87.741h-113.3Zm119.342 0v87.741h113.3v-87.741h-113.3Zm119.341 0v87.741h113.3v-87.741h-113.3Zm-975.373-3.768c0-.693-.562-1.256-1.256-1.256h-23.623c-.693 0-1.256.563-1.256 1.256v2.512c0 .693.563 1.256 1.256 1.256h23.623c.694 0 1.256-.563 1.256-1.256v-2.512Zm20.641-88.997v87.741h113.299v-87.741H1332.31Zm119.341 0v87.741h113.3v-87.741h-113.3Zm119.342 0v87.741h113.3v-87.741h-113.3Zm119.341 0v87.741h113.3v-87.741h-113.3Zm119.342 0v87.741h113.3v-87.741h-113.3Zm119.341 0v87.741h113.3v-87.741h-113.3Zm119.342 0v87.741h113.3v-87.741h-113.3Zm119.342 0v87.741h113.3v-87.741h-113.3Zm119.341 0v87.741h113.3v-87.741h-113.3Zm-975.373-3.769c0-.693-.562-1.256-1.256-1.256h-23.623c-.693 0-1.256.563-1.256 1.256v2.512c0 .694.563 1.257 1.256 1.257h23.623c.694 0 1.256-.563 1.256-1.257v-2.512Z" class="color6847b8 svgShape"/><path fill="#57bdf0" d="m1336.26 930.019 114.56-89.234 114.499 90.702c1.649 1.306 4.235 1.318 5.902.029l353.918-273.888 115.517 87.861c1.638 1.246 4.147 1.252 5.793.013l116.727-87.809 231.055 177.641c1.745 1.342 4.469 1.253 6.083-.199 1.614-1.452 1.507-3.717-.239-5.059L2166.13 650.213c-1.637-1.259-4.158-1.27-5.81-.027l-116.743 87.822-115.558-87.893c-1.656-1.259-4.196-1.25-5.838.021l-353.858 273.841-114.509-90.709c-1.652-1.309-4.246-1.318-5.911-.021l-117.529 91.546c-1.735 1.352-1.824 3.617-.199 5.06 1.625 1.444 4.349 1.518 6.085.166Z" class="colorf08557 svgShape"/><path fill="#7ad2fe" d="m1333.22 835.856 114.561-89.234 114.499 90.702c.964.764 2.298 1.113 3.614.947 1.317-.166 2.466-.829 3.115-1.795l117.79-175.647 114.875 181.876c.242.383.566.727.956 1.015l121.51 89.524c1.666 1.228 4.182 1.197 5.804-.071l116.499-91.108 79.955 57.075c.931.665 2.16.967 3.376.832 1.217-.136 2.306-.698 2.994-1.544l269.725-331.809c1.332-1.638.815-3.863-1.155-4.971-1.969-1.107-4.645-.677-5.977.961L2128.34 891.09l-79.225-56.554c-1.669-1.191-4.15-1.145-5.752.109l-116.455 91.073-117.979-86.923-118.206-187.15c-.735-1.163-2.177-1.898-3.757-1.915-1.58-.016-3.044.688-3.813 1.836l-118.958 177.387-113.42-89.848c-1.652-1.309-4.246-1.318-5.912-.021l-117.528 91.546c-1.735 1.352-1.824 3.617-.199 5.061 1.625 1.443 4.349 1.517 6.084.165Z" class="color7ab4fe svgShape"/><path fill="#f5f5f5" d="M249.466 384.962c0-37.765 30.66-68.425 68.425-68.425h664.465c37.765 0 68.425 30.66 68.425 68.425v547.404c0 37.765-30.66 68.425-68.425 68.425H317.891c-37.765 0-68.425-30.66-68.425-68.425V384.962Z" class="coloreef1ff svgShape"/><circle cx="650.123" cy="658.664" r="315.916" fill="#02abff" class="colorffaf02 svgShape"/><path fill="#4792b8" d="M666.657 974.147c159.368-8.352 287.481-134.248 298.613-293.446l-315.147-22.037 16.534 315.483Zm-16.534-631.399c-174.475 0-315.915 141.441-315.915 315.916a315.915 315.915 0 0 0 39.609 153.159l276.306-153.159V342.748Z" class="color6847b8 svgShape"/><circle cx="650.123" cy="658.664" r="208.225" fill="#f5f5f5" class="coloreef1ff svgShape"/><path fill="#f5f5f5" d="M2565.26 1098.08c0-2.929-2.234-5.737-6.211-7.808-3.976-2.071-9.37-3.234-14.993-3.234H455.966c-5.623 0-11.017 1.163-14.993 3.234-3.977 2.071-6.211 4.879-6.211 7.808v849.844c0 2.928 2.234 5.737 6.211 7.808 3.976 2.071 9.37 3.234 14.993 3.234h2088.09c5.623 0 11.017-1.163 14.993-3.234 3.977-2.071 6.211-4.88 6.211-7.808V1098.08Z" class="coloreef1ff svgShape"/><path fill="#02abff" d="M562.407 1889.54a1.829 1.829 0 0 0-1.828-1.828H518.37a1.83 1.83 0 0 0-1.828 1.828v3.656a1.83 1.83 0 0 0 1.828 1.828h42.209a1.829 1.829 0 0 0 1.828-1.828v-3.656Zm1919.24-541.773H590.677a2.652 2.652 0 0 0-2.651 2.651v541.608a2.652 2.652 0 0 0 2.651 2.651h.211c.301.218.672.347 1.072.347h1889.69a1.829 1.829 0 0 0 1.828-1.828v-3.656a1.829 1.829 0 0 0-1.828-1.828h-626.456v-127.674h626.456a1.829 1.829 0 0 0 1.828-1.828v-3.656a1.829 1.829 0 0 0-1.828-1.828h-626.456v-127.675h626.456a1.829 1.829 0 0 0 1.828-1.828v-3.655a1.829 1.829 0 0 0-1.828-1.828h-626.456v-127.675h626.456a1.829 1.829 0 0 0 1.828-1.828v-3.656a1.829 1.829 0 0 0-1.828-1.828h-626.456v-127.674h626.456a1.829 1.829 0 0 0 1.828-1.828v-3.656a1.829 1.829 0 0 0-1.828-1.828Zm-1474.77 539.319c-.209.213-.421.422-.637.626h.637v-.626Zm115.887-127.048h-105.285v127.674h113.17c-4.857-4.615-7.885-11.133-7.885-18.353v-109.321Zm209.907 0h-105.764v127.674h113.649c-4.857-4.615-7.885-11.133-7.885-18.353v-109.321Zm209.906 0h-106.243v127.674h114.128c-4.856-4.615-7.885-11.133-7.885-18.353v-109.321Zm209.907 0h-106.722v127.674h114.607c-4.856-4.615-7.885-11.133-7.885-18.353v-109.321Zm-1049.53 0H598.627v127.674h112.212c-4.856-4.615-7.885-11.133-7.885-18.353v-109.321Zm303.927 39.869v-39.869H808.055v127.674h112.691c-4.857-4.615-7.885-11.133-7.885-18.353v-51.725c0-13.973 11.344-25.317 25.317-25.317h50.634c7.073 0 13.473 2.907 18.069 7.59Zm-209.428 86.677c-.36.388-.732.764-1.116 1.128h1.116v-1.128Zm418.855.978c-.052.05-.104.101-.157.15h.157v-.15Zm-653.901-133.008a1.829 1.829 0 0 0-1.828-1.828H518.37a1.83 1.83 0 0 0-1.828 1.828v3.656a1.83 1.83 0 0 0 1.828 1.828h42.209a1.829 1.829 0 0 0 1.828-1.828v-3.656Zm235.046-56.504v-72.999H598.627v127.675h104.327v-37.451c0-13.973 11.344-25.317 25.317-25.317h50.634c7.324 0 13.925 3.116 18.548 8.092Zm10.602-72.999v127.675h198.826v-127.675H808.055Zm408.253 46.434v-46.434h-198.825v127.675h105.285v-63.039c0-13.973 11.344-25.317 25.317-25.317h50.634a25.231 25.231 0 0 1 17.589 7.115Zm10.603-46.434v127.675h105.764v-127.675h-105.764Zm209.427 0v127.675h106.243v-127.675h-106.243Zm209.428 0v127.675h106.722v-127.675h-106.722Zm-1083.36-5.483a1.829 1.829 0 0 0-1.828-1.828h-42.209a1.83 1.83 0 0 0-1.828 1.828v3.655a1.83 1.83 0 0 0 1.828 1.828h42.209a1.829 1.829 0 0 0 1.828-1.828v-3.655Zm36.22-129.503v127.675h198.826v-127.675H598.626Zm1047.14 0v127.675h106.722v-127.675h-106.722Zm-92.731 0h-116.697v127.675h106.243v-107.184c0-8.422 4.121-15.888 10.454-20.491Zm-127.299 73.434v-73.434h-198.825v127.675h105.764v-35.587c0-13.973 11.344-25.317 25.317-25.317h50.634a25.225 25.225 0 0 1 17.11 6.663Zm-617.681-73.434v127.675h198.826v-127.675H808.055Zm209.428 0v127.675h198.825v-127.675h-198.825Zm617.681 1.409v-1.409h-1.767c.61.444 1.2.914 1.767 1.409Zm-1072.76-6.893a1.829 1.829 0 0 0-1.828-1.828h-42.209a1.83 1.83 0 0 0-1.828 1.828v3.656a1.83 1.83 0 0 0 1.828 1.828h42.209a1.829 1.829 0 0 0 1.828-1.828v-3.656Zm36.22-129.502v127.674H797.45v-127.674H598.624Zm209.428 0v127.674h198.826v-127.674H808.052Zm209.428 0v127.674h198.825v-127.674H1017.48Zm209.428 0v127.674h198.825v-127.674h-198.825Zm209.427 0v127.674h198.826v-127.674h-198.826Zm408.254 20.372v-20.372h-198.826v127.674h106.722v-87.812c0-13.973 11.345-25.317 25.318-25.317h50.634a25.208 25.208 0 0 1 16.152 5.827Zm-1282.18-25.856a1.829 1.829 0 0 0-1.828-1.828h-42.209a1.83 1.83 0 0 0-1.828 1.828v3.656a1.83 1.83 0 0 0 1.828 1.828h42.209a1.829 1.829 0 0 0 1.828-1.828v-3.656Z" class="colorffaf02 svgShape"/><path fill="#4792b8" d="M2483.48 1266.36a5.928 5.928 0 0 0-5.924-5.924H522.466a5.928 5.928 0 0 0-5.924 5.924v11.847a5.927 5.927 0 0 0 5.924 5.923h1955.09a5.927 5.927 0 0 0 5.924-5.923v-11.847Zm-1268.95-101.057c0-7.273-5.905-13.178-13.179-13.178H529.719c-7.273 0-13.179 5.905-13.179 13.178v26.357c0 7.274 5.906 13.179 13.179 13.179h671.632c7.274 0 13.179-5.905 13.179-13.179v-26.357Z" class="color6847b8 svgShape"/><path fill="#02abff" d="m768.452 1561.34 572.692-694.055 172.004 248.692 472.351-485.587-99.98-131.315 428.328-34.14-79.403 481.968-103.365-113.88-667.477 563.853-174.611-261.396-520.539 425.86Z" class="colorffaf02 svgShape"/><path fill="#ddd" d="M247.807 2656.07h2504.39v27.389H247.807z" class="colorbde0fe svgShape"/><path fill="#c1c1c1" d="M1901.65 1232.77c3.304 2.87 15.61 39.269 15.61 39.269l56.733-49.323-6.726-31.298s.709-36.788-1.884-39.852c-5.868-6.933-25.901-9.47-36.001-9.289-13.714-10.349-62.965-44.958-65.02-38.157-4.372 14.468 19.095 31.152 30.106 41.979-3.864 4.935-7.684 11.418-5.969 11.48-4.234 5.668-4.196 10.607-2.726 15.302-3.149 5.873-4.028 12.309-2.84 19.259-1.467 6.271-1.462 26.05 2.605 28.271 0 0 12.811 9.491 16.112 12.359Z" class="colorf5a58e svgShape"/><path fill="#6fbfe7" d="M1943.78 1152.13c.761.159 1.516.043 1.885-.641.4-.744.123-1.978-.719-2.04-4.533-.333-9.511-2.318-14.194-6.6-.581-.532-1.281-.864-1.963-.469-.71.411-1.126 1.484-.518 2.035 7.1 6.435 10.664 6.706 15.509 7.715Z" class="colore77d6f svgShape"/><path fill="#57bdf0" d="M1901.01 1281.42c7.082 18.748 36.009 106.818 82.766 206.094 48.082 102.086 139.702 31.301 105.362-37.55l-109.179-233.966-78.949 65.422Z" class="colorf08557 svgShape"/><path fill="#f5f5f5" d="m1996.24 1245.57-85.827 70.598-11.259-34.477 82.138-68.115 14.948 31.994Z" class="coloreef1ff svgShape"/><path fill="#ddd" d="M1974.13 1239.78c-2.048 1.594-3.045 4.771-2.226 7.091.82 2.321 3.147 2.911 5.194 1.318s3.044-4.77 2.225-7.091c-.819-2.32-3.146-2.911-5.193-1.318Z" class="colorbde0fe svgShape"/><path fill="#57bdf0" d="M2027.22 1439.26c-44.514 52.085-7.266 163.012 91.447 64.85 71.262-70.865 143.111-166.254 143.111-166.254 60.2-67.634-32.308-123.816-113.155-42.215L2027.22 1439.26Z" class="colorf08557 svgShape"/><path fill="#3795c4" d="M2216.38 1254.45c6.763-1.193 6.418 1.994-.06 3.283-14.102 2.804-37.793 10.08-66.483 39.016l-121.363 143.572a1.642 1.642 0 0 1-2.507-2.119l121.404-143.62a1.58 1.58 0 0 1 .087-.095c29.507-29.782 57.087-37.949 68.922-40.037Z" class="colorc45c37 svgShape"/><path fill="#c1c1c1" d="M2263.62 1052.72c-20.235-2.694-41.999 9.401-50.08 22.487-10.333 16.734-17.877 59.883-21.234 89.053-2.318 20.147 12.381 38.799 34.816 30.934-.41 2.723 1.516 46.167.799 57.721-3.011 48.539 104.241 52.208 99.109-1.49-.829-8.676-12.111-54.814-14.975-78.667l4.545-16.482c22.994-8.304 17.677-34.008-.013-36.453-.632-32.879-6.999-62.981-45.437-66.642a108.314 108.314 0 0 0-7.53-.461Z" class="colorf5a58e svgShape"/><path fill="#6fbfe7" d="m2243.3 1184.43-16.182 10.798.621 30.787 15.561-41.585Zm-10.95-46.63c1.689-.022 2.791.178 3.583.581.759.386 1.196.957 1.648 1.585a1.272 1.272 0 0 0 1.734.305c.58-.392.718-1.167.314-1.729-.684-.951-1.394-1.768-2.543-2.352-.575-.292-1.268-.529-2.144-.678 1.281-.573 2.863-.724 4.769-.455a1.252 1.252 0 0 0 1.419-1.04 1.235 1.235 0 0 0-1.063-1.401c-3.163-.447-5.628.097-7.503 1.407-1.86 1.299-3.166 3.383-3.929 6.178a1.23 1.23 0 0 0 .895 1.513 1.259 1.259 0 0 0 1.528-.873c.319-1.17.742-2.19 1.292-3.041Z" class="colore77d6f svgShape"/><path fill="#09608c" d="M2320.83 1075.28c2.67-53.028-89.605-38.069-108.091-48.963-6.068-3.576-6.592 21.836-6.592 21.836-3.112-1.221-3.638-2.973-6.738-5.587-2.881 9.656 1.627 40.767 8.266 48.341.025-.079.17-.333.414-.724.076.797.176 1.599.298 2.403 0 0 4.264.02 7.545 10.275 4.591 14.35 1.323 27.938 12.165 27.686 2.094-6.565 9.822-18.543 16.499-8.521 11.191 16.795-6.729 30.651-11.013 30.946 5.554 31.835 72.329 36.685 78.476 16.671 15.299-26.312 37.376-89.647 8.771-94.363Z" class="color8c0919 svgShape"/><path fill="#09608c" d="M2222.07 1101.69c-1.412 34.661-8.788 55.786-22.092 63.454-2.683-4.06-6.552-8.785-6.552-8.785s-9.281 26.979 9.667 46.234c6.326 6.429 21.225 9.146 35.159-17.337 5.116-9.723-14.518-38.099-10.099-54.427l-6.083-29.139Z" class="color8c0919 svgShape"/><path fill="#57bdf0" d="M2500.32 1520.1c16.062 66.607-67.429 148.591-110.91 16.344-31.39-95.472-52.184-213.069-52.184-213.069-22.994-87.576 84.931-95.712 119.997 13.674l43.097 183.051Z" class="colorf08557 svgShape"/><path fill="#3795c4" d="M2358.87 1257.31c-5.314 2.369-1.743 4.394 1.125 3.084 11.065-5.054 25.606-2.998 39.819 3.91 21.686 10.54 43.372 34.384 55.825 73.182l43.083 182.991a1.641 1.641 0 1 0 3.195-.753l-43.097-183.051a1.772 1.772 0 0 0-.034-.125c-12.798-39.922-35.232-64.355-57.537-75.197-15.122-7.35-30.558-9.311-42.379-4.041Z" class="colorc45c37 svgShape"/><path fill="#d1d1d1" d="M2434.94 2524.28h95.202l14.703 112.893h-95.202l-14.703-112.893Z" class="colorffb3a4 svgShape"/><path fill="#404b51" d="m2425.98 2555.19 119.372 18.917 6.786 32.103 17.793 49.619-80.133.086-3.675-7.38-10.448 7.395-131.189.141s-5.162-23.503 2.385-30.525c11.848-11.024 67.888-37.862 67.888-37.862l11.221-32.494Z" class="color154180 svgShape"/><path fill="#e6e6e6" d="M2388.03 2609.37c-1.807-.436-3.391-2.049-3.584-3.566-.193-1.518 1.069-2.447 2.878-2.01l18.236 4.401c1.806.436 3.39 2.049 3.584 3.565.193 1.519-1.069 2.448-2.879 2.011l-18.235-4.401Zm-8.61 6.89c-1.806-.436-3.39-2.05-3.584-3.566-.193-1.519 1.069-2.447 2.879-2.011l18.235 4.401c1.807.436 3.391 2.05 3.584 3.566.193 1.519-1.069 2.448-2.878 2.011l-18.236-4.401Zm-8.61 6.89c-1.806-.436-3.39-2.049-3.583-3.565-.194-1.519 1.068-2.448 2.878-2.011l18.235 4.401c1.807.436 3.391 2.049 3.584 3.566.194 1.518-1.069 2.447-2.878 2.01l-18.236-4.401Z" class="colorcde4ff svgShape"/><path fill="#6fbfe7" d="M2434.94 2524.28h95.202l3.884 29.823-99.086-29.823Z" class="colore77d6f svgShape"/><path fill="#d1d1d1" d="M2106.73 2524.28h95.202l-10.372 112.893h-95.202l10.372-112.893Z" class="colorffb3a4 svgShape"/><path fill="#404b51" d="m2090.9 2555.19 115.17 18.917-.344 32.103 6.772 49.619-80.152.086-2.036-7.38-12.091 7.395-131.22.141s.058-23.503 9.165-30.525c14.297-11.024 76.298-37.862 76.298-37.862l18.438-32.494Z" class="color154180 svgShape"/><path fill="#e6e6e6" d="M2040.92 2609.37c-1.71-.436-2.936-2.049-2.792-3.566.144-1.518 1.612-2.447 3.325-2.01l17.258 4.401c1.709.436 2.935 2.049 2.791 3.565-.143 1.519-1.612 2.448-3.324 2.011l-17.258-4.401Zm-10.14 6.89c-1.71-.436-2.935-2.05-2.792-3.566.144-1.519 1.612-2.447 3.325-2.011l17.258 4.401c1.71.436 2.935 2.05 2.792 3.566-.144 1.519-1.613 2.448-3.325 2.011l-17.258-4.401Zm-10.14 6.89c-1.709-.436-2.935-2.049-2.791-3.565.143-1.519 1.612-2.448 3.324-2.011l17.258 4.401c1.71.436 2.936 2.049 2.792 3.566-.144 1.518-1.612 2.447-3.325 2.01l-17.258-4.401Z" class="colorcde4ff svgShape"/><path fill="#6fbfe7" d="M2106.73 2524.28h95.202l-2.74 29.823-92.462-29.823Z" class="colore77d6f svgShape"/><path fill="#319fd6" d="M2406.35 1610.74h-196.566l187.958 921.779 169.049-3.478-128.856-737.521c1.852-59.485-4.057-119.456-31.585-180.78Z" class="color3175d6 svgShape"/><path fill="#404b51" d="m2314.75 2125.49 24.64-514.748h-129.601l104.961 514.748Z" class="color154180 svgShape"/><path fill="#319fd6" d="M2129.85 1610.74h214.218c5.053 115.39-4.411 193.122-26.111 239.116l-73.979 677.494-169.447-3.46 55.319-913.15Z" class="color3175d6 svgShape"/><path fill="#404b51" d="m2386.66 2450.68 117.163-1.662c1.075-.016 1.834-.836 1.695-1.834-.138-.997-1.122-1.793-2.197-1.778l-117.163 1.663c-1.075.015-1.834.836-1.695 1.833.138.997 1.122 1.793 2.197 1.778Zm-301.63-25.5 117.164-1.662c1.075-.016 1.834-.836 1.695-1.834-.139-.997-1.122-1.793-2.197-1.778l-117.164 1.663c-1.075.015-1.833.836-1.695 1.833.139.997 1.123 1.793 2.197 1.778Zm304.79 36.8 79.16-1.124c1.075-.015 1.834-.836 1.695-1.833-.138-.997-1.122-1.793-2.197-1.778l-79.16 1.124c-1.075.015-1.834.836-1.695 1.833s1.122 1.793 2.197 1.778Zm-308.4-23.99 79.16-1.123c1.075-.015 1.834-.836 1.695-1.833s-1.122-1.793-2.197-1.778l-79.16 1.123c-1.075.015-1.834.836-1.695 1.833.138.998 1.122 1.794 2.197 1.778Zm80.57-827.2c-.56 15.571-3.654 93.856-9.803 113.217-1.184 3.728-6.104 6.253-11.412 8.129-8.558 3.026-18.397 4.102-18.397 4.102-1.022.112-1.657.979-1.419 1.938.239.959 1.26 1.645 2.281 1.534 0 0 14.041-1.549 23.612-6.076 4.447-2.103 7.906-4.89 8.992-8.308 6.264-19.725 9.437-100.17 9.959-114.536h-3.813Zm199.17 0c.01.091.026.183.05.276 0 0 24.336 95.056 35.177 116.739 1.709 3.418 5.31 6.205 9.601 8.308 9.239 4.527 21.632 6.076 21.632 6.076.901.111 1.62-.575 1.606-1.534-.014-.959-.756-1.826-1.657-1.938 0 0-8.682-1.076-16.71-4.102-4.979-1.876-9.773-4.401-11.637-8.129-10.46-20.922-33.521-110.652-34.813-115.696h-3.249Z" class="color154180 svgShape"/><path fill="#57bdf0" d="M2228.92 1252.6c-11.116 1.707-54.394 18.105-60.878 41.532-17.392 62.835-43.472 335.478-43.472 335.478 83.645 9.646 207.108 23.769 292.989 4.275 0 0-.565-70.338 4.969-132.728 8.094-91.255 14.404-207.553-3.612-226.916-13.821-14.855-82.675-29.89-100.429-30.248-44.995-.908-47.572 2.158-89.567 8.607Z" class="colorf08557 svgShape"/><path fill="#3795c4" d="M2417.29 1632.96c.723-26.67.306-73.824 3.01-101.268 6.285-63.779 10.622-129.686 10.863-200.069.003-.998-.626-1.844-1.618-1.891-.992-.047-1.877.724-1.976 1.721.736 69.846-3.459 135.707-10.104 199.587-2.87 27.589-3.41 72.965-3.769 101.75-.012 1.005.625 1.845 1.618 1.891.992.047 1.877-.724 1.976-1.721Zm-282.02-72.75 18.493-169.413c.11-.99-.61-1.839-1.609-1.896-.998-.058-1.897.698-2.006 1.688l-18.494 169.413a1.695 1.695 0 0 0 1.609 1.896 1.926 1.926 0 0 0 2.007-1.688Z" class="colorc45c37 svgShape"/><path fill="#c1c1c1" d="M740.564 1196.25c12.497-46.984 46.94-49.083 82.29-33.495 14.838 6.543 20.017 26.784 15.542 51.588-.318 1.759-3.451 6.653-1.774 12.713 1.646 5.949-1.889 48.537-9.297 54.906-5.894 5.068-14.944 5.046-27.387-.251 0 0 8.135 38.494 9.372 59.972 2.88 49.995-99.197 54.898-98.644-2.646.106-10.991 14.503-104.896 14.503-104.896-24.068-19.43-3.26-48.758 15.395-37.891Z" class="colorf5a58e svgShape"/><path fill="#013149" d="M822.602 1215.02c.261-8.644 23.076-30.511 14.527-52.465-9.768-25.083-78.15-53.463-115.197-2.545-31.877 43.811 1.333 94.6 1.333 94.6 10.67 12.701 67.024 18.67 90.959-20.476-15.877-15.707-4.475-46.263 6.476-34.236 3.592 3.944.442 14.374 1.902 15.122Z" class="color011949 svgShape"/><path fill="#6fbfe7" d="m787.731 1276.16 12.305 5.545 4.821 27.563-17.126-33.108Zm28.321-60.44c-.875-.036-1.543.118-2.089.38-.832.399-1.402 1.073-1.957 1.878a.872.872 0 0 0 1.437.99c.372-.54.717-1.028 1.275-1.296.538-.258 1.251-.292 2.307-.071.321.938.526 2.044.634 3.297a.873.873 0 0 0 1.738-.15c-.469-5.441-2.703-8.454-7.003-8.441a.871.871 0 1 0 .006 1.744c1.621-.005 2.812.583 3.652 1.669Z" class="colore77d6f svgShape"/><path fill="#013149" d="M723.97 1107.02c-10.964-25.062-31.51-39.974-49.41-34.26-9.435 3.011-16.503 11.231-20.509 22.333-6.217-6.754-14.126-10.8-22.732-10.8-19.979 0-36.198 21.797-36.198 48.645 0 26.848 16.219 48.645 36.198 48.645 1.748 0 3.467-.167 5.15-.49 3.207 17.071 14.662 29.713 28.286 29.713 11.631 0 21.681-9.215 26.367-22.531 5.424 1.631 10.93 1.739 16.205.055 8.47-2.703 15.033-9.605 19.186-19.023 4.703 4.387 10.404 6.957 16.547 6.957 16.105 0 29.18-17.669 29.18-39.431 0-21.763-13.075-39.432-29.18-39.432-7.297 0-13.972 3.628-19.09 9.619Z" class="color011949 svgShape"/><path fill="#7ad2fe" d="M752.103 1178.57c-.172.431-.163.972.061 1.431.344.705 1.064.952 1.609.551 3.14-2.307 10.082-8.212 12.385-12.084 3.764-6.329 6.046-13.808 6.068-22.127.005-1.859-2.876-2.142-3.14-.106-.311 2.388.097 3.233-1.145 7.861a1.4 1.4 0 0 0-.29-.336c-.549-.458-1.458-.41-1.606.384-1.729 9.307-5.13 15.171-13.166 20.747-3.438 2.385-9.635 4.171-13.419 4.931-2.925.587-1.649 3.293.879 2.769 3.521-.731 7.249-1.453 11.764-4.021Z" class="color7ab4fe svgShape"/><path fill="#c1c1c1" d="m668.821 1530.64-32.398 75.995c-30.676 69.322-101.489 23.564-86.131-25.916 19-61.215 31.458-85.11 31.458-85.11l87.071 35.031Z" class="colorf5a58e svgShape"/><path fill="#6fbfe7" d="m581.37 1495.45 87.268 35.418-13.746 31.447-73.522-66.865Z" class="colore77d6f svgShape"/><path fill="#319fd6" d="M570.74 1494.59c24.121-57.855 46.373-103.052 46.373-103.052 33.228-84.227 125.084-26.987 88.699 81.968l-27.338 64.428-107.734-43.344Z" class="color3175d6 svgShape"/><path fill="#c1c1c1" d="M840.903 2640.95c-39.496-286.449-46.417-345.334-49.805-491.813-1.327-57.343 104.3-68.655 113.733 13.154l-.619 481.172-63.309-2.513Z" class="colorf5a58e svgShape"/><path fill="#6fbfe7" d="M904.588 2351.33c-27.598 18.646-61.543 23.742-98.826 21.712 0 0-12.73-140.265-14.664-223.9-1.327-57.343 104.3-68.655 113.733 13.154l-.243 189.034Z" class="colore77d6f svgShape"/><path fill="#c1c1c1" d="M608.335 2656.89c.417-284.414 1.709-342.881 18.851-488.313 6.711-56.934 124.14-81.306 112.701 13.101l-68.142 477.73-63.41-2.518Z" class="colorf5a58e svgShape"/><path fill="#6fbfe7" d="M711.225 2382.62c-34.067 7.546-67.438 3.459-100.035-13.517 0 0 7.074-124.831 15.996-200.525 6.711-56.934 124.14-81.306 112.701 13.101l-28.662 200.941Z" class="colore77d6f svgShape"/><path fill="#0d6591" d="M894.819 2614.23c-.304 4.904 7.354 12.396 7.354 12.396 2.956 3.352 1.933 5.872-.527 4.194 0 0-12.194-9.35-18.558-7.508-13.724 3.971-30.74 8.119-44.755 1.426-2.232-1.066-2.917 1.459-2.909 2.543l-.833 17.156c-4.367 1.333-4.319 13.515 1.027 13.515 0 0 117.694.047 145.092.108 3.437.007 7.314-12.491-2.196-18.048-28.346-16.564-73.816-44.214-73.816-44.214-8.482 4.896-9.574 13.527-9.879 18.432Z" class="color0d4f91 svgShape"/><path fill="#2fb8fc" d="M984.765 2649c0-.47-.865-.852-1.93-.852H834.232c-1.066 0-1.931.382-1.931.852 0 .471.865.853 1.931.853h148.603c1.065 0 1.93-.382 1.93-.853Zm-58.901-40.39c15.616 9.423 36.808 22.144 52.65 31.401 1.374.803 2.494 1.718 3.395 2.698h-76.236c-1.597-.078-2.068-3.058-.842-4.222 5.237-4.977 19.224-19.125 21.033-29.877Z" class="color5090ef svgShape"/><path fill="#0d6591" d="M665.101 2620.24c-.305 4.904 7.354 12.397 7.354 12.397 2.955 3.352 1.932 5.871-.528 4.193 0 0-12.193-9.35-18.557-7.508-13.725 3.971-30.74 8.119-44.756 1.426-2.231-1.066-2.916 1.46-2.908 2.544l-.833 17.156c-4.368 1.333-4.32 13.515 1.027 13.515 0 0 117.694.047 145.092.107 3.436.008 7.314-12.49-2.196-18.047-28.346-16.564-73.816-44.215-73.816-44.215-8.483 4.896-9.575 13.528-9.879 18.432Z" class="color0d4f91 svgShape"/><path fill="#2fb8fc" d="M755.046 2655.02c0-.471-.864-.853-1.93-.853H604.513c-1.065 0-1.93.382-1.93.853 0 .47.865.852 1.93.852h148.603c1.066 0 1.93-.382 1.93-.852Zm-58.901-40.4c15.617 9.423 36.808 22.144 52.651 31.402 1.373.802 2.493 1.717 3.394 2.697h-76.236c-1.596-.078-2.067-3.057-.842-4.222 5.238-4.977 19.224-19.124 21.033-29.877Z" class="color5090ef svgShape"/><path fill="#013149" d="M534.4 2305.87c56.807-174.816 19.398-611.533 131.858-700.284l196.205-3.515c55.561 58.494 83.423 497.679 114.632 708.152-153.811 52.835-291.662 52.617-442.695-4.353Z" class="color011949 svgShape"/><path fill="#319fd6" d="m888.537 1514.54-18.727 94.635c-80.531 13.597-120.206 12.467-202.889-2 0 0-1.705-70.428-22.525-117.637-19.963-45.265-23.164-94.743-12.939-117.211 13.051-28.675 71.466-38.194 81.478-39.358 40.196-4.675 74.8-3.843 113.926 1.275 7.217.944 22.177 3.262 22.177 3.262s27.649 34.723 32.506 68.597c2.683 18.706 20.991 43.148 23.204 69.494 1.667 19.847-16.211 38.943-16.211 38.943Z" class="color3175d6 svgShape"/><path fill="#404b51" d="M883.357 1523.25c-2.771 3.1-4.637 5.008-4.637 5.008a1.664 1.664 0 0 1-2.354.026 1.664 1.664 0 0 1-.027-2.354s13.326-13.618 21.456-27.051c3.35-5.537 5.847-11.015 5.961-15.44.15-5.802-2.009-14.718-5.059-24.368-7.244-22.926-19.611-49.878-19.611-49.878a1.665 1.665 0 1 1 3.027-1.388s12.459 27.16 19.76 50.262c3.184 10.076 5.369 19.4 5.212 25.458-.126 4.88-2.746 10.973-6.441 17.078-3.745 6.188-8.568 12.416-12.736 17.391l-17.968 90.434a1.766 1.766 0 0 1-1.841 1.658 1.719 1.719 0 0 1-1.631-1.828l16.889-85.008Zm-240.526-42.94c-.72-3.63-3.76-3.445-2.864.722 2.549 11.864 11.414 29.095 15.913 48.683 6.526 28.419 8.674 60.369 9.136 76.156.029.964.883 1.705 1.842 1.658a1.72 1.72 0 0 0 1.631-1.829c-.966-16.448-3.431-48.694-9.998-77.023-4.584-19.771-13.4-36.97-15.66-48.367Z" class="color154180 svgShape"/><path fill="#c1c1c1" d="m924.565 1474.78 38.78 113.124c23.413 72.099-59.862 85.275-81.443 38.175-26.699-58.269-45.562-119.285-45.562-119.285l88.225-32.014Z" class="colorf5a58e svgShape"/><path fill="#6fbfe7" d="m836.351 1506.85 88.228-31.785-74.333 72.586c-4.836-13.291-9.405-26.987-13.895-40.801Z" class="colore77d6f svgShape"/><path fill="#319fd6" d="M827.458 1513.38c-20.643-59.184-34.231-107.695-34.231-107.695-31.46-84.904 75.15-103.57 120.759 1.856l22.634 66.228-109.162 39.611Z" class="color3175d6 svgShape"/><path fill="#404b51" d="m935.448 1475.77-107.34 39.393a1.904 1.904 0 0 1-2.45-1.164c-20.664-59.247-34.266-107.809-34.266-107.809a1.906 1.906 0 1 1 3.671-1.028s13.296 47.466 33.56 105.759l105.525-38.734a1.907 1.907 0 0 1 1.3 3.583Z" class="color154180 svgShape"/><path fill="#c1c1c1" d="M891.751 1569.27c12.302-14.621 142.661-163.101 142.661-163.101 20.246-58.998 45.45-76.239 59.13-64.157 30.799-25.164 56.521-30.93 56.202-23.356-.519 12.312-16.598 14.177-36.535 35.273 5.648-3.053 15.591 4.939 13.987 12.335 3.744.393 10.739.153 11.065 12.253 6.145.645 8.267 8.232 2.467 19.382-5.872 11.288-31.841 45.265-47.021 46.796l-122.865 183.404c-61.571 72.46-115.524-15.53-79.091-58.829Z" class="colorf5a58e svgShape"/><path fill="#6fbfe7" d="m1001.05 1448.31-80.671 93.209a1.688 1.688 0 1 1-2.631-2.116l80.67-93.209a1.689 1.689 0 0 1 2.632 2.116Z" class="colore77d6f svgShape"/></svg></svg>